<svg id="Layer_1" data-name="Layer 1" xmlns="http://www.w3.org/2000/svg" viewBox="0 0 496 512"><defs><style>.cls-1{fill:#fff;}</style></defs><title>login-icon</title><path class="cls-1" d="M248,16C111,16,0,127,0,264S111,512,248,512,496,401,496,264,385,16,248,16Zm0,73A108.5,108.5,0,1,1,139.5,197.5,108.5,108.5,0,0,1,248,89Zm-.9,389c-71.76,0-131.57-32.34-174.6-82.5,23-42.68,63.47-71.83,115.92-71.83A30.39,30.39,0,0,1,197.1,325c15.89,5.07,32.52,8.32,50,8.32a163.12,163.12,0,0,0,50-8.32,30.39,30.39,0,0,1,8.68-1.32c52.44,0,91,28.69,114,71.37C376.72,445.2,318.87,478,247.1,478Z"/></svg>